<svg width="168" height="202" viewBox="0 0 168 202" fill="none" xmlns="http://www.w3.org/2000/svg">
<g clip-path="url(#clip0_295_671)">
<path fill-rule="evenodd" clip-rule="evenodd" d="M105.706 111.793H59.6501C55.8586 111.793 52.707 114.916 52.707 118.833C52.707 122.625 55.8586 125.777 59.6501 125.777H105.706C109.595 125.777 112.747 122.625 112.747 118.833C112.747 114.944 109.595 111.793 105.706 111.793ZM45.7916 107.667C47.6283 105.83 47.6283 102.888 45.7916 101.051C40.6782 95.9723 36.7962 90.1005 34.222 83.7347C31.5018 77.3412 30.0895 70.3911 30.0895 63.3504C30.0895 48.6362 36.1491 35.2924 45.7916 25.6569C55.4273 16.0143 68.7431 9.9547 83.4922 9.9547C98.116 9.9547 111.432 16.0143 121.193 25.6569C130.828 35.2924 136.797 48.6015 136.797 63.3504C136.797 70.3911 135.392 77.3412 132.665 83.7347C130.063 90.1283 126.181 96.007 121.193 101.086C119.231 102.922 119.231 105.858 121.193 107.695C123.029 109.532 125.965 109.532 127.802 107.695C133.646 101.851 138.3 94.9009 141.452 87.3176C144.603 79.7274 146.224 71.5877 146.224 63.3504C146.224 46.0063 139.184 30.3042 127.802 18.9224C116.42 7.54059 100.718 0.5 83.4922 0.5C66.1412 0.5 50.439 7.54059 39.0572 18.9224C27.6753 30.3042 20.6348 46.0063 20.6348 63.3504C20.6348 71.5877 22.381 79.7274 25.4073 87.2829C28.5659 94.8731 33.2133 101.816 39.0572 107.667C40.9286 109.497 43.9549 109.497 45.7916 107.667ZM129.332 63.2322C129.332 37.8666 108.739 17.3919 83.4922 17.3919C58.1196 17.3919 37.5266 37.8944 37.5266 63.2322C37.5266 81.5641 48.2684 97.2593 63.6019 104.634V107.57H67.7343L72.5069 107.569L81.0711 107.57L85.7532 107.569L94.3244 107.57L99.097 107.569L103.229 107.57V104.634C118.591 97.2593 129.332 81.5293 129.332 63.2322ZM97.782 130.306H67.6717C63.7548 130.306 60.6311 133.457 60.6311 137.256C60.6311 141.138 63.7827 144.297 67.6717 144.297H74.0653H91.291H97.782C101.574 144.297 104.725 141.138 104.725 137.256C104.725 133.457 101.574 130.306 97.782 130.306ZM65.3201 62.8398C64.5062 59.7482 61.6915 57.4682 58.3443 57.4682C54.3606 57.4682 51.1312 60.6976 51.1312 64.6813C51.1312 68.665 54.3606 71.8944 58.3443 71.8944C61.7291 71.8944 64.5693 69.563 65.3468 66.4185C72.2943 70.4004 78.064 76.1335 82.0888 83.0303C79.0021 83.8477 76.7269 86.66 76.7269 90.0037C76.7269 93.9873 79.9564 97.2167 83.94 97.2167C87.9237 97.2167 91.1532 93.9873 91.1532 90.0037C91.1532 86.6941 88.9242 83.9052 85.8856 83.056C89.9678 76.3834 95.5793 70.7672 102.263 66.6778C103.129 69.6904 105.905 71.8944 109.196 71.8944C113.18 71.8944 116.41 68.665 116.41 64.6813C116.41 60.6976 113.18 57.4682 109.196 57.4682C105.925 57.4682 103.163 59.6458 102.279 62.6305C95.666 58.4323 90.0632 52.8062 85.8875 46.1768C88.9251 45.327 91.1532 42.5385 91.1532 39.2296C91.1532 35.246 87.9237 32.0165 83.94 32.0165C79.9564 32.0165 76.7269 35.246 76.7269 39.2296C76.7269 42.5493 78.9696 45.3452 82.0224 46.185C77.8223 52.9545 72.1041 58.6573 65.3201 62.8398ZM105.804 64.6813L105.49 64.8516C105.579 66.8218 107.204 68.3918 109.197 68.3918C111.246 68.3918 112.907 66.7306 112.907 64.6813C112.907 62.6322 111.246 60.9709 109.197 60.9709C107.204 60.9709 105.578 62.542 105.49 64.5131C105.594 64.5695 105.699 64.6256 105.804 64.6813ZM84.0674 86.2954C86.0577 86.3625 87.6505 87.997 87.6505 90.0037C87.6505 92.0528 85.9893 93.7141 83.94 93.7141C81.8909 93.7141 80.2296 92.0528 80.2296 90.0037C80.2296 87.9943 81.8269 86.358 83.8209 86.2951C83.8609 86.3784 83.9006 86.4618 83.9401 86.5454C83.9631 86.4998 83.9862 86.4543 84.0094 86.4088C84.0287 86.371 84.048 86.3332 84.0674 86.2954ZM87.6505 39.2296C87.6505 41.2571 86.0245 42.9047 84.0053 42.9395L83.9401 42.8173L83.8762 42.9395C81.8565 42.9055 80.2296 41.2575 80.2296 39.2296C80.2296 37.1804 81.8909 35.5192 83.94 35.5192C85.9893 35.5192 87.6505 37.1804 87.6505 39.2296ZM68.4458 64.6166L68.5653 64.5538C75.1296 61.1062 80.4825 55.7334 83.906 49.1564C87.4009 55.7313 92.7899 61.1244 99.3663 64.6166L98.4482 65.1142C92.1914 68.5059 87.1181 73.7259 83.906 80.0769C80.8734 73.6567 75.8103 68.4142 69.4996 65.16L68.4458 64.6166ZM62.0548 64.6813C62.0548 66.7306 60.3936 68.3918 58.3444 68.3918C56.2951 68.3918 54.6339 66.7306 54.6339 64.6813C54.6339 62.6322 56.2951 60.9709 58.3444 60.9709C60.3936 60.9709 62.0548 62.6322 62.0548 64.6813Z" fill="black"/>
</g>
<path d="M6.58 171.84H0.28V166.6H18.84V171.84H12.56V193H6.58V171.84ZM31.6075 193V190.34C31.4875 190.607 31.1808 190.993 30.6875 191.5C30.2075 192.007 29.5675 192.467 28.7675 192.88C27.9675 193.28 27.0342 193.48 25.9675 193.48C24.3675 193.48 22.9675 193.093 21.7675 192.32C20.5675 191.533 19.6342 190.487 18.9675 189.18C18.3008 187.86 17.9675 186.4 17.9675 184.8C17.9675 183.2 18.3008 181.747 18.9675 180.44C19.6342 179.12 20.5675 178.067 21.7675 177.28C22.9675 176.493 24.3675 176.1 25.9675 176.1C26.9942 176.1 27.8942 176.267 28.6675 176.6C29.4408 176.92 30.0675 177.307 30.5475 177.76C31.0275 178.2 31.3608 178.607 31.5475 178.98V176.58H37.5875V193H31.6075ZM23.9275 184.8C23.9275 185.547 24.1008 186.22 24.4475 186.82C24.7942 187.407 25.2542 187.867 25.8275 188.2C26.4142 188.533 27.0608 188.7 27.7675 188.7C28.5008 188.7 29.1475 188.533 29.7075 188.2C30.2675 187.867 30.7075 187.407 31.0275 186.82C31.3608 186.22 31.5275 185.547 31.5275 184.8C31.5275 184.053 31.3608 183.387 31.0275 182.8C30.7075 182.2 30.2675 181.733 29.7075 181.4C29.1475 181.053 28.5008 180.88 27.7675 180.88C27.0608 180.88 26.4142 181.053 25.8275 181.4C25.2542 181.733 24.7942 182.2 24.4475 182.8C24.1008 183.387 23.9275 184.053 23.9275 184.8ZM48.8056 176.1C49.8856 176.1 50.8723 176.193 51.7656 176.38C52.659 176.553 53.4056 176.753 54.0056 176.98C54.619 177.207 55.0123 177.393 55.1856 177.54L53.2056 181.12C52.9523 180.933 52.479 180.693 51.7856 180.4C51.1056 180.107 50.3456 179.96 49.5056 179.96C48.8656 179.96 48.3256 180.06 47.8856 180.26C47.4456 180.447 47.2256 180.747 47.2256 181.16C47.2256 181.573 47.4656 181.907 47.9456 182.16C48.439 182.4 49.1456 182.613 50.0656 182.8C50.8656 182.96 51.679 183.213 52.5056 183.56C53.3323 183.907 54.019 184.42 54.5656 185.1C55.1256 185.767 55.4056 186.66 55.4056 187.78C55.4056 188.927 55.159 189.873 54.6656 190.62C54.1723 191.367 53.519 191.947 52.7056 192.36C51.8923 192.773 51.0123 193.06 50.0656 193.22C49.119 193.393 48.199 193.48 47.3056 193.48C46.0523 193.48 44.959 193.367 44.0256 193.14C43.1056 192.913 42.359 192.653 41.7856 192.36C41.2123 192.067 40.8123 191.833 40.5856 191.66L42.5456 187.66C42.8923 187.953 43.459 188.287 44.2456 188.66C45.0323 189.02 45.8656 189.2 46.7456 189.2C47.599 189.2 48.259 189.073 48.7256 188.82C49.1923 188.567 49.4256 188.233 49.4256 187.82C49.4256 187.487 49.3123 187.22 49.0856 187.02C48.859 186.82 48.539 186.647 48.1256 186.5C47.7123 186.353 47.2123 186.22 46.6256 186.1C46.0923 185.993 45.5256 185.827 44.9256 185.6C44.3256 185.373 43.759 185.067 43.2256 184.68C42.6923 184.28 42.259 183.78 41.9256 183.18C41.5923 182.58 41.4256 181.853 41.4256 181C41.4256 179.907 41.779 179 42.4856 178.28C43.1923 177.56 44.1056 177.02 45.2256 176.66C46.3456 176.287 47.539 176.1 48.8056 176.1ZM69.8331 176.58H76.7131L68.9731 184.42L77.5131 193H70.4731L64.1331 186.4V193H58.0531V165.48H64.1331V182.3L69.8331 176.58ZM79.3409 193V176.58H85.4209V193H79.3409ZM82.4609 173.2C81.5009 173.2 80.6876 172.867 80.0209 172.2C79.3543 171.52 79.0209 170.713 79.0209 169.78C79.0209 168.847 79.3543 168.04 80.0209 167.36C80.7009 166.667 81.5143 166.32 82.4609 166.32C83.0876 166.32 83.6609 166.48 84.1809 166.8C84.7009 167.107 85.1209 167.52 85.4409 168.04C85.7609 168.56 85.9209 169.14 85.9209 169.78C85.9209 170.713 85.5809 171.52 84.9009 172.2C84.2209 172.867 83.4076 173.2 82.4609 173.2ZM88.3497 176.58H91.0697V172.24C91.0697 170.64 91.4097 169.307 92.0897 168.24C92.7697 167.173 93.6497 166.367 94.7297 165.82C95.8097 165.273 96.9297 165 98.0897 165C99.5297 165 100.623 165.193 101.37 165.58C102.13 165.967 102.61 166.253 102.81 166.44L100.49 170.9C100.423 170.793 100.256 170.64 99.9897 170.44C99.723 170.24 99.3697 170.14 98.9297 170.14C98.6497 170.14 98.3697 170.213 98.0897 170.36C97.8097 170.507 97.5764 170.767 97.3897 171.14C97.2164 171.513 97.1297 172.06 97.1297 172.78V176.58H101.19V181.58H97.1297V193H91.0697V181.58H88.3497V176.58ZM111.991 187.74L116.431 176.58H122.391L111.111 201.32H105.031L108.831 193L101.971 176.58H108.031L111.991 187.74ZM128.377 193.48C127.391 193.48 126.537 193.127 125.817 192.42C125.111 191.7 124.757 190.847 124.757 189.86C124.757 188.847 125.111 187.987 125.817 187.28C126.537 186.56 127.391 186.2 128.377 186.2C129.391 186.2 130.251 186.56 130.957 187.28C131.664 187.987 132.017 188.847 132.017 189.86C132.017 190.847 131.664 191.7 130.957 192.42C130.251 193.127 129.391 193.48 128.377 193.48ZM149.186 193V190.34C149.066 190.607 148.759 190.993 148.266 191.5C147.786 192.007 147.146 192.467 146.346 192.88C145.546 193.28 144.612 193.48 143.546 193.48C141.946 193.48 140.546 193.093 139.346 192.32C138.146 191.533 137.212 190.487 136.546 189.18C135.879 187.86 135.546 186.4 135.546 184.8C135.546 183.2 135.879 181.747 136.546 180.44C137.212 179.12 138.146 178.067 139.346 177.28C140.546 176.493 141.946 176.1 143.546 176.1C144.572 176.1 145.472 176.267 146.246 176.6C147.019 176.92 147.646 177.307 148.126 177.76C148.606 178.2 148.939 178.607 149.126 178.98V176.58H155.166V193H149.186ZM141.506 184.8C141.506 185.547 141.679 186.22 142.026 186.82C142.372 187.407 142.832 187.867 143.406 188.2C143.992 188.533 144.639 188.7 145.346 188.7C146.079 188.7 146.726 188.533 147.286 188.2C147.846 187.867 148.286 187.407 148.606 186.82C148.939 186.22 149.106 185.547 149.106 184.8C149.106 184.053 148.939 183.387 148.606 182.8C148.286 182.2 147.846 181.733 147.286 181.4C146.726 181.053 146.079 180.88 145.346 180.88C144.639 180.88 143.992 181.053 143.406 181.4C142.832 181.733 142.372 182.2 142.026 182.8C141.679 183.387 141.506 184.053 141.506 184.8ZM159.224 193V176.58H165.304V193H159.224ZM162.344 173.2C161.384 173.2 160.57 172.867 159.904 172.2C159.237 171.52 158.904 170.713 158.904 169.78C158.904 168.847 159.237 168.04 159.904 167.36C160.584 166.667 161.397 166.32 162.344 166.32C162.97 166.32 163.544 166.48 164.064 166.8C164.584 167.107 165.004 167.52 165.324 168.04C165.644 168.56 165.804 169.14 165.804 169.78C165.804 170.713 165.464 171.52 164.784 172.2C164.104 172.867 163.29 173.2 162.344 173.2Z" fill="black"/>
<defs>
<clipPath id="clip0_295_671">
<rect width="127" height="154" fill="white" transform="translate(20)"/>
</clipPath>
</defs>
</svg>
