<svg width="127" height="145" viewBox="0 0 127 145" fill="none" xmlns="http://www.w3.org/2000/svg">
<path fill-rule="evenodd" clip-rule="evenodd" d="M85.7062 111.793H39.6501C35.8586 111.793 32.707 114.916 32.707 118.833C32.707 122.625 35.8586 125.777 39.6501 125.777H85.7062C89.5953 125.777 92.7467 122.625 92.7467 118.833C92.7467 114.944 89.5953 111.793 85.7062 111.793ZM25.7916 107.667C27.6283 105.83 27.6283 102.888 25.7916 101.051C20.6782 95.9723 16.7962 90.1005 14.222 83.7347C11.5018 77.3412 10.0895 70.3911 10.0895 63.3504C10.0895 48.6362 16.1491 35.2924 25.7916 25.6569C35.4273 16.0143 48.7431 9.9547 63.4922 9.9547C78.116 9.9547 91.4319 16.0143 101.193 25.6569C110.828 35.2924 116.797 48.6015 116.797 63.3504C116.797 70.3911 115.392 77.3412 112.665 83.7347C110.063 90.1283 106.181 96.007 101.193 101.086C99.2308 102.922 99.2308 105.858 101.193 107.695C103.029 109.532 105.965 109.532 107.802 107.695C113.646 101.851 118.3 94.9009 121.452 87.3176C124.603 79.7274 126.224 71.5877 126.224 63.3504C126.224 46.0063 119.184 30.3042 107.802 18.9224C96.4201 7.54059 80.7179 0.5 63.4922 0.5C46.1412 0.5 30.439 7.54059 19.0572 18.9224C7.67535 30.3042 0.634766 46.0063 0.634766 63.3504C0.634766 71.5877 2.38099 79.7274 5.40734 87.2829C8.56586 94.8731 13.2133 101.816 19.0572 107.667C20.9286 109.497 23.9549 109.497 25.7916 107.667ZM109.332 63.2322C109.332 37.8666 88.7394 17.3919 63.4922 17.3919C38.1196 17.3919 17.5266 37.8944 17.5266 63.2322C17.5266 81.5641 28.2684 97.2593 43.6019 104.634V107.57H47.7343V107.569H52.5069V107.57H61.0711V107.569H65.7532V107.57H74.3244V107.569H79.097V107.57H83.2294V104.634C98.5907 97.2593 109.332 81.5293 109.332 63.2322ZM77.782 130.306H47.6717C43.7548 130.306 40.6311 133.457 40.6311 137.256C40.6311 141.138 43.7827 144.297 47.6717 144.297H54.0653H71.291H77.782C81.5736 144.297 84.7252 141.138 84.7252 137.256C84.7252 133.457 81.5736 130.306 77.782 130.306ZM45.3201 62.8398C44.5062 59.7482 41.6915 57.4682 38.3443 57.4682C34.3606 57.4682 31.1312 60.6976 31.1312 64.6813C31.1312 68.665 34.3606 71.8944 38.3443 71.8944C41.7291 71.8944 44.5693 69.563 45.3468 66.4185C52.2943 70.4004 58.064 76.1335 62.0888 83.0303C59.0021 83.8477 56.7269 86.66 56.7269 90.0037C56.7269 93.9873 59.9564 97.2167 63.94 97.2167C67.9237 97.2167 71.1532 93.9873 71.1532 90.0037C71.1532 86.6941 68.9242 83.9052 65.8856 83.056C69.9678 76.3834 75.5793 70.7672 82.2631 66.6778C83.1291 69.6904 85.9053 71.8944 89.1963 71.8944C93.18 71.8944 96.4095 68.665 96.4095 64.6813C96.4095 60.6976 93.18 57.4682 89.1963 57.4682C85.9251 57.4682 83.1625 59.6458 82.2789 62.6305C75.666 58.4323 70.0632 52.8062 65.8875 46.1768C68.9251 45.327 71.1532 42.5385 71.1532 39.2296C71.1532 35.246 67.9237 32.0165 63.94 32.0165C59.9564 32.0165 56.7269 35.246 56.7269 39.2296C56.7269 42.5493 58.9696 45.3452 62.0224 46.185C57.8223 52.9545 52.1041 58.6573 45.3201 62.8398ZM85.804 64.6813L85.4899 64.8516C85.5789 66.8218 87.2043 68.3918 89.1965 68.3918C91.2456 68.3918 92.9069 66.7306 92.9069 64.6813C92.9069 62.6322 91.2456 60.9709 89.1965 60.9709C87.2036 60.9709 85.5777 62.542 85.4898 64.5131C85.5943 64.5695 85.6991 64.6256 85.804 64.6813ZM64.0674 86.2954C66.0577 86.3625 67.6505 87.997 67.6505 90.0037C67.6505 92.0528 65.9893 93.7141 63.94 93.7141C61.8909 93.7141 60.2296 92.0528 60.2296 90.0037C60.2296 87.9943 61.8269 86.358 63.8209 86.2951C63.8609 86.3784 63.9006 86.4618 63.9401 86.5454C63.9631 86.4998 63.9862 86.4543 64.0094 86.4088C64.0287 86.371 64.048 86.3332 64.0674 86.2954ZM67.6505 39.2296C67.6505 41.2571 66.0245 42.9047 64.0053 42.9395L63.9401 42.8173L63.8762 42.9395C61.8565 42.9055 60.2296 41.2575 60.2296 39.2296C60.2296 37.1804 61.8909 35.5192 63.94 35.5192C65.9893 35.5192 67.6505 37.1804 67.6505 39.2296ZM48.4458 64.6166L48.5653 64.5538C55.1296 61.1062 60.4825 55.7334 63.906 49.1564C67.4009 55.7313 72.7899 61.1244 79.3663 64.6166L78.4482 65.1142C72.1914 68.5059 67.1181 73.7259 63.906 80.0769C60.8734 73.6567 55.8103 68.4142 49.4996 65.16L48.4458 64.6166ZM42.0548 64.6813C42.0548 66.7306 40.3936 68.3918 38.3444 68.3918C36.2951 68.3918 34.6339 66.7306 34.6339 64.6813C34.6339 62.6322 36.2951 60.9709 38.3444 60.9709C40.3936 60.9709 42.0548 62.6322 42.0548 64.6813Z" fill="#AEC5F0"/>
</svg>
