<svg width="500" height="500" viewBox="0 0 500 500" fill="none" xmlns="http://www.w3.org/2000/svg">
<mask id="mask0_287_965" style="mask-type:luminance" maskUnits="userSpaceOnUse" x="0" y="0" width="500" height="500">
<path d="M500 0H0V500H500V0Z" fill="white"/>
</mask>
<g mask="url(#mask0_287_965)">
<path d="M500 0H0V500H500V0Z" fill="black"/>
<path d="M0 500H500V0H0V500ZM255.989 143.034C261.101 144.043 267.48 146.843 271.648 149.968C281.965 157.682 287.761 169.043 287.761 181.641C287.761 190.495 285.09 198.242 278.875 207.292C274.578 213.639 272.722 216.862 270.605 222.005C270.02 223.405 268.293 223.633 257.649 223.633H248.047V208.431L249.348 208.236C252.375 207.845 254.46 204.85 254.102 201.432C254.004 200.358 253.743 199.219 253.582 198.861C252.93 197.689 254.883 194.271 258.594 189.974C260.774 187.468 263.64 185.221 266.374 183.887L268.586 182.78L269.629 183.984C271.062 185.645 272.59 186.296 274.902 186.328C277.41 186.361 278.84 185.514 280.046 183.301C281.575 180.501 281.086 177.669 278.711 175.618C276.335 173.568 272.625 173.958 269.988 176.628C269.172 177.441 268.23 178.06 267.839 178.06C266.667 178.06 261.98 175.618 259.407 173.633C256.414 171.354 254.656 169.531 252.961 166.927C251.497 164.714 251.367 164.03 252.148 163.379C253.027 162.663 253.906 160.579 253.906 159.245C253.906 156.152 250.977 153.418 247.786 153.548C245.898 153.613 243.489 154.85 242.611 156.218C241.276 158.203 241.699 161.621 243.457 163.216C244.402 164.095 244.304 164.583 242.741 166.927C238.932 172.526 232.422 177.279 227.376 178.157C226.53 178.32 226.335 178.19 225.879 177.311C225.032 175.586 223.145 174.512 220.931 174.479C218.848 174.479 217.741 174.935 216.406 176.335C213.835 179.036 214.323 183.626 217.415 185.645C219.043 186.719 220.085 186.914 222.038 186.491C223.405 186.198 224.056 185.807 225.358 184.505C226.595 183.268 227.083 182.975 227.637 183.138C229.362 183.659 233.659 186.979 236.914 190.267C241.146 194.564 242.643 197.168 242.513 199.968C242.318 204.036 242.35 204.264 243.132 205.371C243.913 206.445 243.913 206.478 243.848 214.941C243.815 219.629 243.718 223.503 243.652 223.6C243.587 223.665 239.876 223.698 235.449 223.665C228.223 223.6 227.311 223.535 226.79 223.014C226.465 222.721 225.586 221.061 224.805 219.336C223.145 215.625 221.68 213.151 218.587 208.822C211.003 198.177 208.333 190.983 208.333 181.282C208.333 171.061 212.207 161.979 219.792 154.329C226.27 147.819 234.245 143.848 243.327 142.611C246.257 142.187 252.703 142.415 255.989 143.034ZM249.089 158.822C249.414 160.189 248.503 161.068 247.395 160.482C246.453 159.993 246.289 159.082 247.039 158.496C247.82 157.845 248.926 158.04 249.089 158.822ZM249.902 169.987C252.507 173.503 255.73 176.595 258.953 178.646C263.25 181.413 263.02 181.055 261.23 182.129C258.496 183.724 254.363 187.988 251.692 191.992C249.187 195.768 248.665 196.289 247.297 196.289C246.711 196.289 246.387 196.029 246.062 195.215C244.531 191.536 238.672 184.831 234.798 182.357C234.05 181.868 233.431 181.315 233.398 181.087C233.398 180.892 234.082 180.339 234.961 179.85C238.965 177.539 244.238 172.624 246.418 169.141C247.039 168.132 247.625 167.318 247.722 167.318C247.82 167.318 248.796 168.522 249.902 169.987ZM276.465 179.395C277.148 180.241 277.148 180.632 276.497 181.575C275.52 183.008 273.113 182.227 273.113 180.469C273.113 178.613 275.261 177.93 276.465 179.395ZM221.614 179.232C222.852 180.111 222.363 182.617 220.931 182.617C219.954 182.617 218.75 181.738 218.75 181.022C218.75 180.306 219.954 178.711 220.508 178.711C220.703 178.711 221.224 178.939 221.614 179.232ZM249.348 201.139C249.871 202.148 249.739 202.8 248.958 203.093C248.176 203.385 247.07 203.027 247.07 202.474C247.07 200.814 248.665 199.902 249.348 201.139ZM268.718 228.19C269.141 228.613 269.172 229.199 268.879 232.096C268.718 233.952 268.489 235.71 268.391 236.003C268 237.272 267.024 237.337 248.73 237.468C229.525 237.598 229.818 237.63 228.646 235.84C227.962 234.798 227.637 229.915 228.157 228.874C228.386 228.483 228.874 228.027 229.264 227.865C229.655 227.702 238.346 227.604 249.089 227.637C265.754 227.702 268.262 227.767 268.718 228.19ZM264.551 241.667C264.812 241.895 262.695 247.786 261.653 249.739C260.417 252.051 258.301 254.07 256.641 254.524C254.687 255.078 241.113 254.98 239.811 254.426C237.402 253.418 235.221 250.325 233.757 245.833C232.259 241.341 232.096 241.569 236.263 241.471C241.309 241.341 264.387 241.471 264.551 241.667ZM292.61 290.496C293.391 290.754 293.816 291.179 293.977 291.731C294.238 292.708 293.914 294.758 293.328 295.867C292.937 296.55 292.773 296.614 291.309 296.418C290.43 296.289 289.519 296.125 289.29 296.062C288.606 295.769 286.75 297.168 286.262 298.372C285.938 299.153 285.808 300.422 285.872 302.507L285.969 305.5L289.226 305.535L292.48 305.598L292.839 307.488C293 308.562 293.164 309.832 293.164 310.383L293.132 311.36H289.551C286.687 311.36 285.938 311.458 285.774 311.848C285.676 312.109 285.613 317.546 285.676 323.926C285.742 332.488 285.676 335.71 285.383 336.296C284.929 337.175 283.333 337.434 280.371 337.078L278.645 336.882V311.621L276.042 311.426C274.578 311.328 273.21 311.067 272.949 310.872C272.59 310.579 272.461 309.766 272.461 308.105C272.461 305.305 272.429 305.339 276.042 305.339H278.582L278.711 301.008C278.809 297.297 278.906 296.516 279.558 295.312C280.696 293.132 283.171 291.211 285.808 290.496C287.695 289.973 291.179 289.973 292.61 290.496ZM267.415 291.667C269.824 293.164 269.922 297.297 267.61 299.055C265.984 300.261 262.988 299.641 261.816 297.883C259.277 294.109 263.574 289.29 267.415 291.667ZM233.757 292.058C233.789 292.48 233.789 299.25 233.757 307.097C233.757 314.973 233.789 321.321 233.854 321.257C235.221 319.695 241.048 313.184 244.141 309.797L248.176 305.339H252.18C254.524 305.339 256.184 305.469 256.184 305.664C256.184 305.925 253.45 308.984 246.68 316.211L244.597 318.489L248.079 323.699C252.703 330.632 256.477 336.816 256.25 337.043C256.152 337.141 254.297 337.239 252.083 337.239H248.113L247.363 336.003C246.614 334.734 239.876 324.153 239.648 323.894C239.583 323.796 238.216 325.129 236.621 326.824L233.757 329.883L233.561 337.078L226.888 337.273V291.34H230.306C233.626 291.34 233.724 291.375 233.757 292.058ZM161.393 295.801L161.523 299.153H146.484L146.419 318.098L146.322 337.078L138.997 337.273L138.932 318.196L138.835 299.121H132.324C128.743 299.121 125.553 299.023 125.261 298.958C124.74 298.796 124.675 298.372 124.675 295.769C124.675 294.109 124.772 292.644 124.902 292.546C125 292.415 133.268 292.351 143.197 292.383L161.296 292.48L161.393 295.801ZM375.945 294.727C376.758 296.028 376.79 296.648 376.074 297.722C374.968 299.446 372.625 299.512 371.648 297.883C370.41 295.769 371.582 293.621 373.992 293.621C375.098 293.621 375.359 293.782 375.945 294.727ZM183.301 305.632C186.947 307.031 188.867 309.016 189.909 312.5C190.332 313.965 190.43 316.179 190.43 325.586V336.946L184.733 336.75L184.636 335.515C184.57 334.863 184.473 334.309 184.375 334.309C184.277 334.309 183.724 334.668 183.171 335.09C181.413 336.394 179.557 337.175 177.246 337.598C171.452 338.606 166.211 336.75 163.965 332.91C161.784 329.133 162.37 324.153 165.3 321.582C168.066 319.141 171.354 318.359 178.841 318.359H183.659L183.496 316.211C183.236 312.532 181.315 310.937 177.214 310.906C174.544 310.872 172.135 311.36 169.661 312.402C168.555 312.859 167.578 313.184 167.513 313.118C167.448 313.054 166.927 312.078 166.374 310.937C165.169 308.528 165.234 308.367 167.773 307.063C172.461 304.687 179.199 304.07 183.301 305.632ZM213.607 305.305C216.016 305.925 218.555 307.031 219.889 308.074C220.508 308.562 220.475 308.626 218.359 310.774L216.146 312.957L214.421 312.109C212.077 310.906 208.626 310.352 206.738 310.84C204.069 311.589 203.027 313.738 204.46 315.559C205.306 316.602 206.218 317.024 210.872 318.328C212.891 318.879 215.234 319.695 216.113 320.117C219.857 322.039 221.68 326.14 220.671 330.566C219.434 336.165 211.133 339.324 203.06 337.273C200.325 336.555 196.875 335.059 195.671 334.082L194.857 333.43L196.907 330.762C198.047 329.329 199.023 328.125 199.121 328.125C199.186 328.125 199.74 328.484 200.325 328.938C203.45 331.316 208.464 332.356 211.426 331.25C213.184 330.566 213.867 329.687 213.867 328.093C213.867 325.813 212.402 324.836 207.357 323.73C201.693 322.527 198.73 320.769 197.396 317.903C195.41 313.672 197.331 308.464 201.628 306.218C204.753 304.622 209.473 304.265 213.607 305.305ZM268.816 320.605C268.879 333.757 268.816 335.808 268.391 336.458C267.937 337.175 267.644 337.239 265.332 337.239C263.347 337.239 262.664 337.109 262.336 336.687C261.98 336.262 261.882 333.301 261.785 321.062C261.75 312.727 261.785 305.793 261.882 305.632C261.98 305.469 263.574 305.371 265.398 305.437L268.718 305.5L268.816 320.605ZM300.098 306.055C302.996 313.508 305.11 318.945 305.696 320.637C306.086 321.809 306.511 322.883 306.641 323.079C306.77 323.242 307.195 324.348 307.617 325.488L308.367 327.539L309.246 325.164C309.7 323.828 311.328 319.597 312.825 315.754C314.324 311.914 315.789 308.105 316.082 307.292L316.602 305.828L320.085 305.73C322.234 305.664 323.567 305.762 323.567 305.957C323.567 306.152 323.21 307.195 322.786 308.333C321.16 312.727 309.148 342.351 308.496 343.586C307.422 345.769 306.414 346.843 304.622 347.852C303.027 348.73 302.637 348.796 299.48 348.796C295.508 348.796 293.782 348.34 293.489 347.168C293.262 346.321 293.914 341.472 294.238 341.472C294.336 341.472 295.149 341.699 296.028 341.96C300.618 343.359 302.507 342.187 304.363 336.882C304.753 335.808 304.687 335.481 303.645 332.812C301.042 326.204 296.418 314.778 295.508 312.664C294.27 309.832 292.969 306.282 292.969 305.762C292.969 305.437 293.879 305.339 296.387 305.339C299.641 305.339 299.836 305.371 300.098 306.055ZM354.231 305.696C356.316 306.152 358.66 307.292 359.473 308.269C361.687 310.906 362.043 313.672 361.914 327.278L361.816 336.75L360.938 336.848C359.539 337.012 358.757 336.394 358.528 334.929L358.301 333.625L357.454 334.407C352.996 338.477 344.629 338.801 340.691 335.059C338.835 333.301 338.086 331.414 338.086 328.45C338.086 325.032 339.226 323.015 342.187 321.191C343.359 320.442 347.332 319.434 349.934 319.172C351.106 319.075 353.418 318.816 355.078 318.621L358.074 318.293V315.852C358.074 314.551 357.878 312.957 357.617 312.371C357.097 311.133 355.535 309.832 353.875 309.277C351.042 308.333 346.55 309.343 344.402 311.394C343.75 312.012 343 312.5 342.742 312.5C341.731 312.5 340.168 311.785 340.168 311.328C340.168 310.515 342.805 307.976 344.531 307.129C346.16 306.316 349.773 305.437 351.628 305.371C352.117 305.339 353.289 305.5 354.231 305.696ZM375.261 321.582C375.293 332.227 375.227 336.492 374.968 336.785C374.512 337.336 372.2 337.371 371.875 336.848C371.614 336.426 371.68 307.324 371.973 306.868C372.039 306.738 372.82 306.641 373.633 306.707L375.164 306.804L375.261 321.582ZM330.078 328.059C332.683 329.363 333.398 332.227 331.707 334.57C329.949 336.98 326.594 337.175 324.512 334.929C321.125 331.316 325.586 325.781 330.078 328.059Z" fill="white"/>
<path d="M174.154 323.535C172.331 323.796 170.54 324.805 169.987 325.879C169.368 327.019 169.694 329.297 170.606 330.305C171.745 331.543 173.21 332.031 175.716 332.031C180.827 332.031 183.594 329.687 183.594 325.359C183.594 324.382 183.561 323.567 183.529 323.567C181.901 323.371 175.195 323.371 174.154 323.535Z" fill="white"/>
<path d="M356.445 321.648C355.828 321.809 353.679 322.07 351.726 322.266C345.93 322.786 343.523 323.797 342.219 326.301C341.438 327.8 341.602 330.208 342.578 331.707C343.816 333.562 345.312 334.148 348.957 334.148C351.692 334.148 352.312 334.016 354.102 333.203C356.023 332.324 358.008 330.535 358.105 329.656C358.137 329.426 358.203 327.473 358.235 325.261C358.301 322.493 358.203 321.289 357.942 321.321C357.747 321.355 357.063 321.484 356.445 321.648Z" fill="white"/>
</g>
</svg>
