<svg width="2048" height="2048" viewBox="0 0 2048 2048" fill="none" xmlns="http://www.w3.org/2000/svg">
<mask id="mask0_287_985" style="mask-type:luminance" maskUnits="userSpaceOnUse" x="0" y="0" width="2048" height="2048">
<path d="M2048 0H0V2048H2048V0Z" fill="white"/>
</mask>
<g mask="url(#mask0_287_985)">
<path d="M2048 0H0V2048H2048V0Z" fill="black"/>
<path d="M0 2048H2048V0H0V2048ZM1048.53 585.867C1069.47 590 1095.6 601.467 1112.67 614.267C1154.93 645.867 1178.67 692.4 1178.67 744C1178.67 780.267 1167.73 812 1142.27 849.067C1124.67 875.067 1117.07 888.267 1108.4 909.333C1106 915.067 1098.93 916 1055.33 916H1016V853.733L1021.33 852.933C1033.73 851.333 1042.27 839.067 1040.8 825.067C1040.4 820.667 1039.33 816 1038.67 814.533C1036 809.733 1044 795.733 1059.2 778.133C1068.13 767.867 1079.87 758.667 1091.07 753.2L1100.13 748.667L1104.4 753.6C1110.27 760.4 1116.53 763.067 1126 763.2C1136.27 763.333 1142.13 759.867 1147.07 750.8C1153.33 739.333 1151.33 727.733 1141.6 719.333C1131.87 710.933 1116.67 712.533 1105.87 723.467C1102.53 726.8 1098.67 729.333 1097.07 729.333C1092.27 729.333 1073.07 719.333 1062.53 711.2C1050.27 701.867 1043.07 694.4 1036.13 683.733C1030.13 674.667 1029.6 671.867 1032.8 669.2C1036.4 666.267 1040 657.733 1040 652.267C1040 639.6 1028 628.4 1014.93 628.933C1007.2 629.2 997.333 634.267 993.733 639.867C988.267 648 990 662 997.2 668.533C1001.07 672.133 1000.67 674.133 994.267 683.733C978.667 706.667 952 726.133 931.333 729.733C927.867 730.4 927.067 729.867 925.2 726.267C921.733 719.2 914 714.8 904.933 714.667C896.4 714.667 891.867 716.533 886.4 722.267C875.867 733.333 877.867 752.133 890.533 760.4C897.2 764.8 901.467 765.6 909.467 763.867C915.067 762.667 917.733 761.067 923.067 755.733C928.133 750.667 930.133 749.467 932.4 750.133C939.467 752.267 957.067 765.867 970.4 779.333C987.733 796.933 993.867 807.6 993.333 819.067C992.533 835.733 992.667 836.667 995.867 841.2C999.067 845.6 999.067 845.733 998.8 880.4C998.667 899.6 998.267 915.467 998 915.867C997.733 916.133 982.533 916.267 964.4 916.133C934.8 915.867 931.067 915.6 928.933 913.467C927.6 912.267 924 905.467 920.8 898.4C914 883.2 908 873.067 895.333 855.333C864.267 811.733 853.333 782.267 853.333 742.533C853.333 700.667 869.2 663.467 900.267 632.133C926.8 605.467 959.467 589.2 996.667 584.133C1008.67 582.4 1035.07 583.333 1048.53 585.867ZM1020.27 650.533C1021.6 656.133 1017.87 659.733 1013.33 657.333C1009.47 655.333 1008.8 651.6 1011.87 649.2C1015.07 646.533 1019.6 647.333 1020.27 650.533ZM1023.6 696.267C1034.27 710.667 1047.47 723.333 1060.67 731.733C1078.27 743.067 1077.33 741.6 1070 746C1058.8 752.533 1041.87 770 1030.93 786.4C1020.67 801.867 1018.53 804 1012.93 804C1010.53 804 1009.2 802.933 1007.87 799.6C1001.6 784.533 977.6 757.067 961.733 746.933C958.667 744.933 956.133 742.667 956 741.733C956 740.933 958.8 738.667 962.4 736.667C978.8 727.2 1000.4 707.067 1009.33 692.8C1011.87 688.667 1014.27 685.333 1014.67 685.333C1015.07 685.333 1019.07 690.267 1023.6 696.267ZM1132.4 734.8C1135.2 738.267 1135.2 739.867 1132.53 743.733C1128.53 749.6 1118.67 746.4 1118.67 739.2C1118.67 731.6 1127.47 728.8 1132.4 734.8ZM907.733 734.133C912.8 737.733 910.8 748 904.933 748C900.933 748 896 744.4 896 741.467C896 738.533 900.933 732 903.2 732C904 732 906.133 732.933 907.733 734.133ZM1021.33 823.867C1023.47 828 1022.93 830.667 1019.73 831.867C1016.53 833.067 1012 831.6 1012 829.333C1012 822.533 1018.53 818.8 1021.33 823.867ZM1100.67 934.667C1102.4 936.4 1102.53 938.8 1101.33 950.667C1100.67 958.267 1099.73 965.467 1099.33 966.667C1097.73 971.867 1093.73 972.133 1018.8 972.667C940.133 973.2 941.333 973.333 936.533 966C933.733 961.733 932.4 941.733 934.533 937.467C935.467 935.867 937.467 934 939.067 933.333C940.667 932.667 976.267 932.267 1020.27 932.4C1088.53 932.667 1098.8 932.933 1100.67 934.667ZM1083.6 989.867C1084.67 990.8 1076 1014.93 1071.73 1022.93C1066.67 1032.4 1058 1040.67 1051.2 1042.53C1043.2 1044.8 987.6 1044.4 982.267 1042.13C972.4 1038 963.467 1025.33 957.467 1006.93C951.333 988.533 950.667 989.467 967.733 989.067C988.4 988.533 1082.93 989.067 1083.6 989.867ZM1198.53 1189.87C1201.73 1190.93 1203.47 1192.67 1204.13 1194.93C1205.2 1198.93 1203.87 1207.33 1201.47 1211.87C1199.87 1214.67 1199.2 1214.93 1193.2 1214.13C1189.6 1213.6 1185.87 1212.93 1184.93 1212.67C1182.13 1211.47 1174.53 1217.2 1172.53 1222.13C1171.2 1225.33 1170.67 1230.53 1170.93 1239.07L1171.33 1251.33L1184.67 1251.47L1198 1251.73L1199.47 1259.47C1200.13 1263.87 1200.8 1269.07 1200.8 1271.33L1200.67 1275.33H1186C1174.27 1275.33 1171.2 1275.73 1170.53 1277.33C1170.13 1278.4 1169.87 1300.67 1170.13 1326.8C1170.4 1361.87 1170.13 1375.07 1168.93 1377.47C1167.07 1381.07 1160.53 1382.13 1148.4 1380.67L1141.33 1379.87V1276.4L1130.67 1275.6C1124.67 1275.2 1119.07 1274.13 1118 1273.33C1116.53 1272.13 1116 1268.8 1116 1262C1116 1250.53 1115.87 1250.67 1130.67 1250.67H1141.07L1141.6 1232.93C1142 1217.73 1142.4 1214.53 1145.07 1209.6C1149.73 1200.67 1159.87 1192.8 1170.67 1189.87C1178.4 1187.73 1192.67 1187.73 1198.53 1189.87ZM1095.33 1194.67C1105.2 1200.8 1105.6 1217.73 1096.13 1224.93C1089.47 1229.87 1077.2 1227.33 1072.4 1220.13C1062 1204.67 1079.6 1184.93 1095.33 1194.67ZM957.467 1196.27C957.6 1198 957.6 1225.73 957.467 1257.87C957.467 1290.13 957.6 1316.13 957.867 1315.87C963.467 1309.47 987.333 1282.8 1000 1268.93L1016.53 1250.67H1032.93C1042.53 1250.67 1049.33 1251.2 1049.33 1252C1049.33 1253.07 1038.13 1265.6 1010.4 1295.2L1001.87 1304.53L1016.13 1325.87C1035.07 1354.27 1050.53 1379.6 1049.6 1380.53C1049.2 1380.93 1041.6 1381.33 1032.53 1381.33H1016.27L1013.2 1376.27C1010.13 1371.07 982.533 1327.73 981.6 1326.67C981.333 1326.27 975.733 1331.73 969.2 1338.67L957.467 1351.2L956.667 1380.67L929.333 1381.47V1193.33H943.333C956.933 1193.33 957.333 1193.47 957.467 1196.27ZM661.067 1211.6L661.6 1225.33H600L599.733 1302.93L599.333 1380.67L569.333 1381.47L569.067 1303.33L568.667 1225.2H542C527.333 1225.2 514.267 1224.8 513.067 1224.53C510.933 1223.87 510.667 1222.13 510.667 1211.47C510.667 1204.67 511.067 1198.67 511.6 1198.27C512 1197.73 545.867 1197.47 586.533 1197.6L660.667 1198L661.067 1211.6ZM1539.87 1207.2C1543.2 1212.53 1543.33 1215.07 1540.4 1219.47C1535.87 1226.53 1526.27 1226.8 1522.27 1220.13C1517.2 1211.47 1522 1202.67 1531.87 1202.67C1536.4 1202.67 1537.47 1203.33 1539.87 1207.2ZM750.8 1251.87C765.733 1257.6 773.6 1265.73 777.867 1280C779.6 1286 780 1295.07 780 1333.6V1380.13L756.667 1379.33L756.267 1374.27C756 1371.6 755.6 1369.33 755.2 1369.33C754.8 1369.33 752.533 1370.8 750.267 1372.53C743.067 1377.87 735.467 1381.07 726 1382.8C702.267 1386.93 680.8 1379.33 671.6 1363.6C662.667 1348.13 665.067 1327.73 677.067 1317.2C688.4 1307.2 701.867 1304 732.533 1304H752.267L751.6 1295.2C750.533 1280.13 742.667 1273.6 725.867 1273.47C714.933 1273.33 705.067 1275.33 694.933 1279.6C690.4 1281.47 686.4 1282.8 686.133 1282.53C685.867 1282.27 683.733 1278.27 681.467 1273.6C676.533 1263.73 676.8 1263.07 687.2 1257.73C706.4 1248 734 1245.47 750.8 1251.87ZM874.933 1250.53C884.8 1253.07 895.2 1257.6 900.667 1261.87C903.2 1263.87 903.067 1264.13 894.4 1272.93L885.333 1281.87L878.267 1278.4C868.667 1273.47 854.533 1271.2 846.8 1273.2C835.867 1276.27 831.6 1285.07 837.467 1292.53C840.933 1296.8 844.667 1298.53 863.733 1303.87C872 1306.13 881.6 1309.47 885.2 1311.2C900.533 1319.07 908 1335.87 903.867 1354C898.8 1376.93 864.8 1389.87 831.733 1381.47C820.533 1378.53 806.4 1372.4 801.467 1368.4L798.133 1365.73L806.533 1354.8C811.2 1348.93 815.2 1344 815.6 1344C815.867 1344 818.133 1345.47 820.533 1347.33C833.333 1357.07 853.867 1361.33 866 1356.8C873.2 1354 876 1350.4 876 1343.87C876 1334.53 870 1330.53 849.333 1326C826.133 1321.07 814 1313.87 808.533 1302.13C800.4 1284.8 808.267 1263.47 825.867 1254.27C838.667 1247.73 858 1246.27 874.933 1250.53ZM1101.07 1313.2C1101.33 1367.07 1101.07 1375.47 1099.33 1378.13C1097.47 1381.07 1096.27 1381.33 1086.8 1381.33C1078.67 1381.33 1075.87 1380.8 1074.53 1379.07C1073.07 1377.33 1072.67 1365.2 1072.27 1315.07C1072.13 1280.93 1072.27 1252.53 1072.67 1251.87C1073.07 1251.2 1079.6 1250.8 1087.07 1251.07L1100.67 1251.33L1101.07 1313.2ZM1229.2 1253.6C1241.07 1284.13 1249.73 1306.4 1252.13 1313.33C1253.73 1318.13 1255.47 1322.53 1256 1323.33C1256.53 1324 1258.27 1328.53 1260 1333.2L1263.07 1341.6L1266.67 1331.87C1268.53 1326.4 1275.2 1309.07 1281.33 1293.33C1287.47 1277.6 1293.47 1262 1294.67 1258.67L1296.8 1252.67L1311.07 1252.27C1319.87 1252 1325.33 1252.4 1325.33 1253.2C1325.33 1254 1323.87 1258.27 1322.13 1262.93C1315.47 1280.93 1266.27 1402.27 1263.6 1407.33C1259.2 1416.27 1255.07 1420.67 1247.73 1424.8C1241.2 1428.4 1239.6 1428.67 1226.67 1428.67C1210.4 1428.67 1203.33 1426.8 1202.13 1422C1201.2 1418.53 1203.87 1398.67 1205.2 1398.67C1205.6 1398.67 1208.93 1399.6 1212.53 1400.67C1231.33 1406.4 1239.07 1401.6 1246.67 1379.87C1248.27 1375.47 1248 1374.13 1243.73 1363.2C1233.07 1336.13 1214.13 1289.33 1210.4 1280.67C1205.33 1269.07 1200 1254.53 1200 1252.4C1200 1251.07 1203.73 1250.67 1214 1250.67C1227.33 1250.67 1228.13 1250.8 1229.2 1253.6ZM1450.93 1252.13C1459.47 1254 1469.07 1258.67 1472.4 1262.67C1481.47 1273.47 1482.93 1284.8 1482.4 1340.53L1482 1379.33L1478.4 1379.73C1472.67 1380.4 1469.47 1377.87 1468.53 1371.87L1467.6 1366.53L1464.13 1369.73C1445.87 1386.4 1411.6 1387.73 1395.47 1372.4C1387.87 1365.2 1384.8 1357.47 1384.8 1345.33C1384.8 1331.33 1389.47 1323.07 1401.6 1315.6C1406.4 1312.53 1422.67 1308.4 1433.33 1307.33C1438.13 1306.93 1447.6 1305.87 1454.4 1305.07L1466.67 1303.73V1293.73C1466.67 1288.4 1465.87 1281.87 1464.8 1279.47C1462.67 1274.4 1456.27 1269.07 1449.47 1266.8C1437.87 1262.93 1419.47 1267.07 1410.67 1275.47C1408 1278 1404.93 1280 1403.87 1280C1399.73 1280 1393.33 1277.07 1393.33 1275.2C1393.33 1271.87 1404.13 1261.47 1411.2 1258C1417.87 1254.67 1432.67 1251.07 1440.27 1250.8C1442.27 1250.67 1447.07 1251.33 1450.93 1252.13ZM1537.07 1317.2C1537.2 1360.8 1536.93 1378.27 1535.87 1379.47C1534 1381.73 1524.53 1381.87 1523.2 1379.73C1522.13 1378 1522.4 1258.8 1523.6 1256.93C1523.87 1256.4 1527.07 1256 1530.4 1256.27L1536.67 1256.67L1537.07 1317.2ZM1352 1343.73C1362.67 1349.07 1365.6 1360.8 1358.67 1370.4C1351.47 1380.27 1337.73 1381.07 1329.2 1371.87C1315.33 1357.07 1333.6 1334.4 1352 1343.73Z" fill="white"/>
<path d="M713.333 1325.2C705.867 1326.27 698.533 1330.4 696.267 1334.8C693.733 1339.47 695.067 1348.8 698.8 1352.93C703.467 1358 709.467 1360 719.733 1360C740.667 1360 752 1350.4 752 1332.67C752 1328.67 751.867 1325.33 751.733 1325.33C745.067 1324.53 717.6 1324.53 713.333 1325.2Z" fill="white"/>
<path d="M1460 1317.47C1457.47 1318.13 1448.67 1319.2 1440.67 1320C1416.93 1322.13 1407.07 1326.27 1401.73 1336.53C1398.53 1342.67 1399.2 1352.53 1403.2 1358.67C1408.27 1366.27 1414.4 1368.67 1429.33 1368.67C1440.53 1368.67 1443.07 1368.13 1450.4 1364.8C1458.27 1361.2 1466.4 1353.87 1466.8 1350.27C1466.93 1349.33 1467.2 1341.33 1467.33 1332.27C1467.6 1320.93 1467.2 1316 1466.13 1316.13C1465.33 1316.27 1462.53 1316.8 1460 1317.47Z" fill="white"/>
</g>
</svg>
